Coordinates
version=1
nRows=11
nColumns=40
inDegrees=yes

Units are S.I. units (second, meters, Newtons, ...)
Angles are in degrees.

endheader
time	pelvis_tilt	pelvis_list	pelvis_rotation	pelvis_tx	pelvis_ty	pelvis_tz	hip_flexion_r	hip_adduction_r	hip_rotation_r	knee_angle_r	knee_angle_r_beta	ankle_angle_r	subtalar_angle_r	mtp_angle_r	hip_flexion_l	hip_adduction_l	hip_rotation_l	knee_angle_l	knee_angle_l_beta	ankle_angle_l	subtalar_angle_l	mtp_angle_l	lumbar_extension	lumbar_bending	lumbar_rotation	arm_flex_r	arm_add_r	arm_rot_r	elbow_flex_r	pro_sup_r	wrist_flex_r	wrist_dev_r	arm_flex_l	arm_add_l	arm_rot_l	elbow_flex_l	pro_sup_l	wrist_flex_l	wrist_dev_l
     57.38500000	     -5.56208748	     -4.92254469	      4.61122823	      1.06822384	      0.93083441	      0.51030692	     11.54580159	      3.54860236	    -16.94388878	     14.45316863	     14.45316863	     10.27830104	     -1.74969470	     -3.03802204	     41.66028646	    -10.41749131	      4.00468225	     61.85173181	     61.85173181	     10.52657535	    -19.16152741	     17.40023053	    -11.78538296	      5.15343832	      3.95195831	     24.53571923	    -16.72768876	      3.95134567	     48.21646342	     45.28752339	      0.00000000	      0.00000000	      9.90800945	     -9.73423105	      6.31139942	     42.67472344	     46.86875952	      0.00000000	      0.00000000
     57.39685714	     -5.78369578	     -5.00317901	      4.87836411	      1.06733270	      0.93051033	      0.51016251	     11.21651791	      3.67725565	    -17.04784798	     14.19298892	     14.19298892	     10.52788822	     -1.80092612	     -3.08407671	     42.52723826	    -10.14547901	      4.04082465	     59.37260834	     59.37260834	     10.56050970	    -19.08216441	     17.62959564	    -11.68474693	      5.18792092	      4.34033002	     26.74428333	    -17.25917826	      3.74445850	     49.27127457	     45.27189338	      0.00000000	      0.00000000	      8.34908924	     -9.53675459	      6.48842787	     41.74579255	     46.82217458	      0.00000000	      0.00000000
     57.40871429	     -5.90100674	     -5.09736649	      5.16760620	      1.06672294	      0.93041461	      0.50987519	     10.57647359	      3.87018778	    -17.22159595	     13.57310478	     13.57310478	     10.65892001	     -1.61996425	     -3.09627862	     43.00929787	     -9.82068580	      4.18660556	     56.52387588	     56.52387588	     10.31438992	    -19.02143212	     16.93445664	    -11.68387888	      5.32159043	      3.89733251	     28.79242863	    -17.58843728	      5.50486408	     52.40652478	     45.10813553	      0.00000000	      0.00000000	      7.52732319	     -9.41080190	      6.92902721	     37.53669364	     46.68993259	      0.00000000	      0.00000000
     57.42057143	     -6.13891049	     -5.10868686	      5.30416780	      1.06611455	      0.93002551	      0.50947113	     10.22708838	      3.91890949	    -17.21905378	     13.28868152	     13.28868152	     10.91694387	     -1.58441116	     -3.14706660	     43.44514879	     -9.40159728	      4.32626488	     53.58480174	     53.58480174	     10.36704615	    -18.83896724	     17.13788303	    -11.56655490	      5.30081702	      4.17732261	     31.00181568	    -17.93953489	      5.28373094	     53.57582183	     45.08925146	      0.00000000	      0.00000000	      5.91762705	     -9.27516062	      7.11358232	     36.60980222	     46.63763415	      0.00000000	      0.00000000
     57.43242857	     -6.21340108	     -5.11613694	      5.45620882	      1.06592355	      0.92993213	      0.50894382	      9.57038842	      3.98774090	    -17.34976507	     12.81542208	     12.81542208	     11.13836527	     -1.26015635	     -3.15103188	     43.42120517	     -8.94866365	      4.61326236	     50.35304341	     50.35304341	     10.28775497	    -18.56928030	     16.81553405	    -11.59553309	      5.33557890	      3.54691846	     33.25098304	    -17.45899436	      5.58573240	     55.78677710	     45.01503573	      0.00000000	      0.00000000	      4.20767217	     -9.44872951	      7.55262381	     34.72382620	     46.53859761	      0.00000000	      0.00000000
     57.44428571	     -6.35097585	     -5.06239996	      5.48083361	      1.06582702	      0.92968041	      0.50831057	      9.03634205	      3.95978469	    -17.39810884	     12.47907846	     12.47907846	     11.42661184	     -0.90507912	     -3.20128873	     43.25658166	     -8.49514384	      4.85454988	     47.01531128	     47.01531128	     10.21725695	    -18.13111903	     16.41562821	    -11.54388673	      5.28532981	      3.56826054	     35.28310116	    -17.53733336	      5.87942555	     57.53424750	     44.95708860	      0.00000000	      0.00000000	      2.69156347	     -9.40213538	      8.00301638	     33.27419324	     46.44242697	      0.00000000	      0.00000000
     57.45614286	     -6.48706046	     -5.11665806	      5.47156852	      1.06598899	      0.92920753	      0.50756460	      8.51404607	      3.99226646	    -17.73191716	     12.21743328	     12.21743328	     11.87116914	     -0.02706137	     -3.10838939	     42.90382847	     -8.22956732	      5.09729496	     43.51438865	     43.51438865	      9.30235954	    -17.54947153	     13.44728114	    -11.45314423	      5.37426171	      4.00687642	     36.83869845	    -18.63690320	      7.54757623	     60.52527097	     44.82508061	      0.00000000	      0.00000000	      1.70104336	     -9.24412700	      9.79407241	     30.99156417	     46.12176569	      0.00000000	      0.00000000
     57.46800000	     -6.57685594	     -5.06297545	      5.39038872	      1.06635011	      0.92882884	      0.50677660	      7.92731051	      3.97255667	    -17.58178729	     11.93739878	     11.93739878	     12.19329681	      0.15113463	     -3.14825258	     42.39688318	     -7.89966160	      5.31842048	     40.20627376	     40.20627376	      9.53324298	    -16.55898874	     13.53849276	    -11.39600687	      5.31686465	      4.10169854	     38.79267030	    -18.51552326	      7.32874381	     61.80142128	     44.80394029	      0.00000000	      0.00000000	      0.04089250	     -9.19730207	     10.17495546	     30.24172468	     46.03200757	      0.00000000	      0.00000000
     57.47985714	     -6.63948350	     -5.08980031	      5.29799328	      1.06698737	      0.92830583	      0.50589236	      7.27787387	      4.02670461	    -17.55492467	     11.62031390	     11.62031390	     12.53301475	      0.55806687	     -3.17932236	     41.77265243	     -7.70454273	      5.51917514	     37.02727281	     37.02727281	      9.77845685	    -15.35044552	     13.48163240	    -11.33275681	      5.36395680	      4.04965209	     40.68003976	    -18.28945527	      7.28600595	     63.28223232	     44.76958747	      0.00000000	      0.00000000	     -1.68152121	     -9.12307195	     10.70495572	     29.48988490	     45.91637539	      0.00000000	      0.00000000
     57.49171429	     -6.72357262	     -5.13158472	      5.19294960	      1.06779331	      0.92759645	      0.50488227	      6.66117625	      4.07835371	    -17.50798337	     11.35018761	     11.35018761	     12.91066337	      0.94669790	     -3.22985847	     41.09845929	     -7.56719332	      5.60551741	     34.02957093	     34.02957093	      9.99505770	    -14.07656734	     13.53728048	    -11.20620531	      5.43147513	      4.14413403	     42.46292955	    -18.17197195	      7.27207386	     64.59150203	     44.73829451	      0.00000000	      0.00000000	     -3.28651454	     -8.96577925	     11.18676994	     28.90909714	     45.81028483	      0.00000000	      0.00000000
     57.50357143	     -6.66290299	     -5.20123664	      5.03887649	      1.06905878	      0.92692647	      0.50380544	      5.81962657	      4.17348529	    -17.51499794	     11.01228157	     11.01228157	     13.33063542	      1.54531571	     -3.20732288	     40.20456631	     -7.55121403	      5.49672575	     31.31744446	     31.31744446	     10.11699437	    -12.83482455	     13.50189255	    -11.17585882	      5.55674832	      3.97814872	     44.07948791	    -17.83432926	      7.47905389	     66.22362670	     44.68984743	      0.00000000	      0.00000000	     -5.12534577	     -8.91806742	     11.93624164	     28.37844592	     45.65275894	      0.00000000	      0.00000000
